<?xml version="1.0" encoding="UTF-8" standalone="no"?>
<svg
   id="Layer_1"
   data-name="Layer 1"
   viewBox="0 0 178 188"
   version="1.1"
   sodipodi:docname="data_confirmationcopia.svg"
   inkscape:version="1.1.1 (3bf5ae0d25, 2021-09-20)"
   xmlns:inkscape="http://www.inkscape.org/namespaces/inkscape"
   xmlns:sodipodi="http://sodipodi.sourceforge.net/DTD/sodipodi-0.dtd"
   xmlns="http://www.w3.org/2000/svg"
   xmlns:svg="http://www.w3.org/2000/svg"
   xmlns:rdf="http://www.w3.org/1999/02/22-rdf-syntax-ns#"
   xmlns:cc="http://creativecommons.org/ns#"
   xmlns:dc="http://purl.org/dc/elements/1.1/">
  <sodipodi:namedview
     id="namedview14415"
     pagecolor="#ffffff"
     bordercolor="#666666"
     borderopacity="1.0"
     inkscape:pageshadow="2"
     inkscape:pageopacity="0.0"
     inkscape:pagecheckerboard="0"
     showgrid="false"
     inkscape:zoom="3.2446809"
     inkscape:cx="88.914754"
     inkscape:cy="94.154098"
     inkscape:window-width="1440"
     inkscape:window-height="837"
     inkscape:window-x="-8"
     inkscape:window-y="-8"
     inkscape:window-maximized="1"
     inkscape:current-layer="Layer_1" />
  <defs
     id="defs14384">
    <style
       id="style14382">.cls-1{fill:#72cec5;}.cls-2,.cls-5{fill:#559a9d;}.cls-3,.cls-4{fill:#fff;}.cls-4,.cls-5{fill-rule:evenodd;}</style>
  </defs>
  <title
     id="title14386">Artboard 18</title>
  <path
     class="cls-1"
     d="M165.32,93.54A76.24,76.24,0,1,1,89.08,17.3,76.24,76.24,0,0,1,165.32,93.54Z"
     id="path14388" />
  <path
     class="cls-2"
     d="M121.23,120l3.47-5,5-30-1-13-16-11.5L98.25,56.37,54.7,54,13,99a76.3,76.3,0,0,0,59.05,68.89L117.7,131Z"
     id="path14390" />
  <rect
     class="cls-3"
     x="54.37"
     y="54.26"
     width="75.2"
     height="62.77"
     id="rect14392" />
  <rect
     class="cls-2"
     x="54.37"
     y="54.26"
     width="75.2"
     height="12.02"
     id="rect14394" />
  <rect
     class="cls-2"
     x="67.02"
     y="75.79"
     width="51.94"
     height="2.63"
     id="rect14396" />
  <rect
     class="cls-2"
     x="67.02"
     y="86.1"
     width="51.94"
     height="2.63"
     id="rect14398" />
  <rect
     class="cls-2"
     x="67.02"
     y="96.85"
     width="51.94"
     height="2.63"
     id="rect14400" />
  <path
     class="cls-4"
     d="M126.62,102.92l-22,24.79a1.84,1.84,0,0,0-.3.63l-2.55,9.42a2.16,2.16,0,0,0,0,.48l0,0a1.71,1.71,0,0,0,.54,1,1.48,1.48,0,0,0,1.12.4,1.82,1.82,0,0,0,.48-.09l9.06-3.68a1.48,1.48,0,0,0,.56-.41l22-24.82Z"
     id="path14402" />
  <polygon
     class="cls-4"
     points="130.09 99.46 138.93 107.26 140.03 106.02 131.23 98.18 130.09 99.46"
     id="polygon14404" />
  <path
     class="cls-4"
     d="M138.05,93.23a6,6,0,0,1,6.3,5.61,5.69,5.69,0,0,1-1,3.67l-2.23,2.5L132.3,97.2l2.22-2.56a6.56,6.56,0,0,1,3.53-1.41Z"
     id="path14406" />
  <rect
     class="cls-3"
     x="132.07"
     y="99.24"
     width="1.71"
     height="11.79"
     transform="translate(-34 134.4) rotate(-48.28)"
     id="rect14408" />
  <polygon
     class="cls-5"
     points="130.7 109.28 112.54 129.79 110 127.53 128.2 107.05 130.7 109.28"
     id="polygon14410" />
  <polygon
     class="cls-5"
     points="105.85 130.39 110.87 134.73 104.22 137.38 105.85 130.39"
     id="polygon14412" />
  <path
     style="fill:#ffd5d5;stroke:#ffd5d5;stroke-width:0.308197"
     d="m 82.288525,169.34345 c -3.198022,-0.32331 -8.15083,-1.12193 -9.072622,-1.46292 -0.528822,-0.19563 2.407495,-2.68944 18.230425,-15.48309 13.260832,-10.72206 19.307622,-15.42538 20.365762,-15.84092 1.35877,-0.53361 2.53982,-1.76132 12.15591,-12.63607 5.858,-6.62477 10.90765,-12.3312 11.22145,-12.68094 0.56501,-0.62974 0.54085,-0.66112 -2.49086,-3.23607 -2.54296,-2.15983 -3.06484,-2.75178 -3.08164,-3.49547 l -0.0202,-0.89531 0.69344,0.58547 c 0.3814,0.32201 1.98071,1.74791 3.55403,3.16866 2.78352,2.51361 2.87693,2.56841 3.46721,2.03421 0.33365,-0.30195 0.605,-0.70086 0.60299,-0.88647 -0.002,-0.18561 -1.86918,-1.98913 -4.1493,-4.00782 l -4.14566,-3.67033 -0.0108,-23.270631 c -0.006,-12.798849 -0.0541,-23.313926 -0.107,-23.366838 -0.0529,-0.05291 -16.93849,-0.113364 -37.523513,-0.134343 L 54.55082,54.026429 34.209836,75.92789 C 23.022295,87.973694 13.680639,98.00791 13.450601,98.226151 12.768275,98.873481 13.170744,86.102795 13.982015,81.363934 15.786134,70.825576 19.762796,60.585583 25.352279,52.085246 28.768163,46.890462 31.102011,44.038744 35.569051,39.601423 60.632971,14.704254 99.151499,10.324119 129.22699,28.951109 c 16.06279,9.94835 28.18469,26.14202 33.15892,44.297044 2.10781,7.693124 2.48881,10.799133 2.48881,20.289552 0,7.495805 -0.082,8.932545 -0.7096,12.430535 -2.91947,16.27241 -10.00582,29.93221 -21.45443,41.35602 -10.42522,10.40263 -22.55636,17.08535 -37.15331,20.46676 -6.521134,1.51064 -16.859624,2.20039 -23.268855,1.55243 z M 139.5118,106.89649 c 0.30999,-0.28053 0.55246,-0.66192 0.53882,-0.84754 -0.0443,-0.60276 -8.60493,-7.954162 -9.05946,-7.779741 -0.23624,0.09065 -0.56483,0.417637 -0.73019,0.726629 -0.25557,0.477532 0.35394,1.147172 4.06344,4.464262 2.40026,2.14635 4.42254,3.91236 4.49395,3.92446 0.0714,0.0121 0.38345,-0.20753 0.69344,-0.48807 z m 4.59377,-5.61135 c 0.92327,-2.693379 -0.3961,-6.2142 -2.78544,-7.433151 -2.69323,-1.373982 -5.82865,-0.585879 -8.15139,2.048894 l -1.13237,1.28449 4.55886,4.034987 4.55887,4.03498 1.29814,-1.46701 c 0.71398,-0.80686 1.45798,-1.9333 1.65333,-2.50319 z"
     id="path14491" />
  <path
     style="fill:#ffaaaa;stroke:#ffd5d5;stroke-width:0.308197"
     d="M 68.111475,166.69561 C 52.108826,161.99156 38.210797,152.44182 28.455585,139.4469 19.818773,127.94179 14.99511,115.64491 13.268578,100.73092 l -0.184113,-1.590384 20.42498,-21.973147 20.424981,-21.973146 0.07852,31.035772 0.07852,31.035775 29.70216,0.0786 29.702154,0.0786 -4.55629,5.1459 c -2.60404,2.94103 -4.69452,5.5821 -4.8789,6.16394 -0.17743,0.55991 -0.83054,2.9252 -1.45134,5.2562 -1.07065,4.02008 -1.10277,4.27779 -0.62418,5.00819 0.66447,1.01412 1.4725,0.98037 4.18741,-0.17493 1.22135,-0.51974 2.27924,-0.88637 2.35086,-0.81475 0.0716,0.0716 -3.6488,3.1666 -8.26758,6.87775 -4.618784,3.71115 -12.884032,10.38811 -18.367221,14.8377 -5.483187,4.44959 -9.994018,8.08334 -10.024071,8.07499 -0.03005,-0.008 -1.718902,-0.5044 -3.753001,-1.10233 z"
     id="path14604" />
  <path
     style="fill:#ffaaaa;stroke:#ffd5d5;stroke-width:0.308197"
     d="m 54.396721,60.252459 v -5.855738 h 37.445902 37.445897 v 5.855738 5.855738 H 91.842623 54.396721 Z"
     id="path14680" />
  <path
     style="fill:#ffaaaa;stroke:#ffd5d5;stroke-width:0.308197"
     d="m 67.032787,77.04918 v -1.078688 h 25.888524 25.888529 v 1.078688 1.078689 H 92.921311 67.032787 Z"
     id="path14719" />
  <path
     style="fill:#ffaaaa;stroke:#ffd5d5;stroke-width:0.308197"
     d="m 67.032787,87.37377 v -1.232786 h 25.888524 25.888529 v 1.232786 1.232787 H 92.921311 67.032787 Z"
     id="path14758" />
  <path
     style="fill:#ffaaaa;stroke:#ffd5d5;stroke-width:0.308197"
     d="m 67.032787,98.160656 v -1.232787 h 25.888524 25.888529 v 1.232787 1.232787 H 92.921311 67.032787 Z"
     id="path14797" />
  <path
     style="fill:#ffaaaa;stroke:#ffd5d5;stroke-width:0.308197"
     d="m 111.43809,128.5438 c -1.02445,-1.05696 -1.02619,-1.0639 -0.44965,-1.79212 2.75867,-3.48446 17.20489,-19.30056 17.48516,-19.14321 0.63987,0.35925 1.73951,1.44167 1.73951,1.71227 0,0.2022 -14.44192,16.73893 -17.24003,19.74071 -0.48055,0.51553 -0.55936,0.48895 -1.53499,-0.51765 z"
     id="path14836" />
  <path
     style="fill:#ffaaaa;stroke:#ffd5d5;stroke-width:0.308197"
     d="m 104.63279,136.67932 c 0,-0.20904 0.28917,-1.6118 0.64261,-3.11726 l 0.64262,-2.73718 0.82132,0.60856 c 0.45172,0.33471 1.49839,1.20836 2.32593,1.94145 l 1.50462,1.33289 -2.58331,1.0196 c -1.42081,0.56077 -2.75666,1.08989 -2.96855,1.1758 -0.21188,0.0859 -0.38524,-0.0148 -0.38524,-0.22386 z"
     id="path14875" />
  <metadata
     id="metadata14914">
    <rdf:RDF>
      <cc:Work
         rdf:about="">
        <dc:title>Artboard 18</dc:title>
      </cc:Work>
    </rdf:RDF>
  </metadata>
</svg>
