<?xml version="1.0" encoding="UTF-8" standalone="no"?>
<svg
   id="Layer_1"
   data-name="Layer 1"
   viewBox="0 0 178 188"
   version="1.1"
   sodipodi:docname="form_datacopia.svg"
   inkscape:version="1.1.1 (3bf5ae0d25, 2021-09-20)"
   xmlns:inkscape="http://www.inkscape.org/namespaces/inkscape"
   xmlns:sodipodi="http://sodipodi.sourceforge.net/DTD/sodipodi-0.dtd"
   xmlns="http://www.w3.org/2000/svg"
   xmlns:svg="http://www.w3.org/2000/svg"
   xmlns:rdf="http://www.w3.org/1999/02/22-rdf-syntax-ns#"
   xmlns:cc="http://creativecommons.org/ns#"
   xmlns:dc="http://purl.org/dc/elements/1.1/">
  <sodipodi:namedview
     id="namedview65"
     pagecolor="#ffffff"
     bordercolor="#666666"
     borderopacity="1.0"
     inkscape:pageshadow="2"
     inkscape:pageopacity="0.0"
     inkscape:pagecheckerboard="0"
     showgrid="false"
     inkscape:zoom="3.1223404"
     inkscape:cx="88.875639"
     inkscape:cy="94"
     inkscape:window-width="1440"
     inkscape:window-height="837"
     inkscape:window-x="-8"
     inkscape:window-y="-8"
     inkscape:window-maximized="1"
     inkscape:current-layer="Layer_1" />
  <defs
     id="defs40">
    <style
       id="style38">.cls-1{fill:#72cec5;}.cls-2{fill:#559a9d;}.cls-3{fill:#fff;}</style>
  </defs>
  <title
     id="title42">Artboard 20</title>
  <path
     class="cls-1"
     d="M165.69,93.54A76.24,76.24,0,1,1,89.46,17.3,76.23,76.23,0,0,1,165.69,93.54Z"
     id="path44" />
  <path
     class="cls-2"
     d="M121.6,120l3.47-5,5-30-1-13-16-11.5L98.62,56.37,55.07,54,13.42,99a76.3,76.3,0,0,0,59,68.89L118.07,131Z"
     id="path46" />
  <rect
     class="cls-3"
     x="54.75"
     y="54.26"
     width="75.2"
     height="62.77"
     id="rect48" />
  <rect
     class="cls-2"
     x="54.75"
     y="54.26"
     width="75.2"
     height="12.02"
     id="rect50" />
  <rect
     class="cls-2"
     x="67.39"
     y="75.79"
     width="51.94"
     height="2.63"
     id="rect52" />
  <rect
     class="cls-2"
     x="67.39"
     y="86.1"
     width="51.94"
     height="2.63"
     id="rect54" />
  <rect
     class="cls-2"
     x="67.39"
     y="96.85"
     width="51.94"
     height="2.63"
     id="rect56" />
  <path
     class="cls-3"
     d="M94.69,127.42l8.8-9.4L112,130.29s9.12-22.76,29.72-34.93l1.32.86S125,109.73,116.2,143.4l-1.91.67Z"
     id="path58" />
  <polygon
     class="cls-1"
     points="94.69 127.42 114.29 144.07 109.14 144.1 94.14 131.59 94.69 127.42"
     id="polygon60" />
  <path
     class="cls-1"
     d="M112,130.29s9.12-22.76,29.72-34.93c-17.69,9.4-30.73,30.77-31.4,32.52Z"
     id="path62" />
  <path
     style="fill:#ffaaaa;stroke:#ffd5d5;stroke-width:0.320273"
     d="M 68.53833,166.70269 C 39.108275,158.23861 17.585874,132.91526 13.910685,102.42757 l -0.393268,-3.262371 1.888651,-2.057412 c 1.038758,-1.131574 10.247765,-11.090247 20.46446,-22.13038 l 18.575809,-20.07297 0.08165,31.077594 0.08165,31.077599 h 31.403847 31.403836 l -1.41506,1.84156 c -1.7644,2.2962 -5.3481,7.73861 -5.3481,8.12194 0,0.81277 -0.7995,-0.12853 -3.70074,-4.35712 -1.75181,-2.55329 -3.33445,-4.60704 -3.51696,-4.56389 -0.46945,0.11099 -8.594317,8.82425 -8.832372,9.472 -0.108121,0.2942 -0.295224,1.33625 -0.415788,2.31566 l -0.2192,1.78075 5.601285,4.6247 c 3.080705,2.54359 5.573775,4.71617 5.540145,4.82796 -0.1196,0.39763 -32.659946,26.53916 -33.011522,26.52005 -0.196878,-0.0107 -1.799185,-0.43395 -3.560685,-0.94055 z"
     id="path184" />
  <path
     style="fill:#ffaaaa;stroke:#ffd5d5;stroke-width:0.320273"
     d="m 54.926746,60.211244 v -5.925043 h 37.471891 37.471893 v 5.925043 5.925042 H 92.398637 54.926746 Z"
     id="path260" />
  <path
     style="fill:#ffaaaa;stroke:#ffd5d5;stroke-width:0.320273"
     d="m 80.308348,75.824633 c 7.178109,-0.04805 18.924105,-0.04805 26.102212,0 7.17811,0.04804 1.30511,0.08735 -13.051105,0.08735 -14.356218,0 -20.229216,-0.03931 -13.051107,-0.08735 z"
     id="path299" />
  <path
     style="fill:#ffaaaa;stroke:#ffd5d5;stroke-width:0.320273"
     d="m 67.417376,77.18569 v -1.120954 h 25.942079 25.942075 v 1.120954 1.120954 H 93.359455 67.417376 Z"
     id="path338" />
  <path
     style="fill:#ffaaaa;stroke:#ffd5d5;stroke-width:0.320273"
     d="m 67.417376,87.434412 v -1.120954 h 25.942079 25.942075 v 1.120954 1.120954 H 93.359455 67.417376 Z"
     id="path377" />
  <path
     style="fill:#ffd5d5;stroke:#ffd5d5;stroke-width:0.320273"
     d="m 67.417376,98.163543 v -1.28109 h 25.942079 25.942075 v 1.28109 1.281091 H 93.359455 67.417376 Z"
     id="path416" />
  <path
     style="fill:#ffd5d5;stroke:#ffd5d5;stroke-width:0.320273"
     d="m 82.79046,169.37661 c -2.184333,-0.20743 -9.390847,-1.38983 -9.571432,-1.57042 -0.225126,-0.22512 -0.512401,0.0149 13.414703,-11.20813 17.049559,-13.73923 18.896079,-15.25387 18.896079,-15.49977 0,-0.11635 -2.51914,-2.29385 -5.59808,-4.8389 l -5.598086,-4.62736 0.186062,-1.60137 c 0.102334,-0.88075 0.279477,-1.70062 0.393654,-1.82194 0.114177,-0.12132 2.369434,1.61356 5.011683,3.85529 14.847277,12.59668 14.269417,12.15352 15.396597,11.80758 0.9255,-0.28404 1.08067,-0.52133 1.59158,-2.43387 1.67044,-6.25322 5.1763,-15.325 8.21432,-21.25544 l 1.59967,-3.12265 h 1.73179 1.7318 v -2.83223 -2.83222 l 1.65662,-2.37221 c 2.58032,-3.69491 5.29411,-6.92827 8.34967,-9.948293 1.54253,-1.5246 2.80461,-2.852664 2.80461,-2.951254 0,-0.09859 -0.29593,-0.337631 -0.65763,-0.531207 -0.53376,-0.285661 -0.92468,-0.195462 -2.07528,0.478836 -1.85203,1.085362 -5.21178,3.635584 -7.91615,6.008758 l -2.16184,1.89709 V 78.971415 53.965928 L 92.478705,53.984376 54.76661,54.002824 34.269165,76.201332 C 14.954429,97.118968 13.75663,98.351431 13.510188,97.561072 13.149857,96.405465 13.51774,87.170367 14.079443,83.270869 17.748893,57.796504 33.189699,36.463696 56.0477,25.288096 c 7.353029,-3.595 14.461665,-5.815447 22.726244,-7.098751 4.993049,-0.775308 16.272063,-0.771096 21.311236,0.008 22.15337,3.424903 40.74307,15.253839 52.94038,33.686854 6.37285,9.630875 10.79814,21.939084 12.05749,33.53593 0.43357,3.992543 0.43357,12.206465 0,16.199011 -2.79845,25.76976 -18.73792,48.64307 -41.77811,59.95206 -7.4775,3.67023 -14.63892,5.9568 -22.5983,7.21538 -3.248865,0.51373 -14.736162,0.89207 -17.91618,0.59007 z"
     id="path492" />
  <path
     style="fill:#ffd5d5;stroke:#ffd5d5;stroke-width:0.320273"
     d="m 111.13346,128.7928 c -0.35991,-0.54928 -0.41514,-0.97092 -0.20099,-1.53419 0.5044,-1.32667 4.85145,-7.62404 7.813,-11.31832 3.26759,-4.07606 8.88109,-10.19903 9.12592,-9.95419 0.0919,0.0919 -0.70461,1.09885 -1.76997,2.23772 -4.08099,4.36259 -8.94625,11.44123 -12.11385,17.62487 -1.0407,2.03158 -1.99694,3.69554 -2.12499,3.69768 -0.12805,0.002 -0.45616,-0.33697 -0.72912,-0.75357 z"
     id="path531" />
  <path
     style="fill:#ffd5d5;stroke:#ffd5d5;stroke-width:0.320273"
     d="m 67.417376,98.163543 v -1.28109 h 25.942079 25.942075 v 1.28109 1.281091 H 93.359455 67.417376 Z"
     id="path570" />
  <path
     style="fill:#ffaaaa;stroke:#ffd5d5;stroke-width:0.320273"
     d="m 67.417376,98.163543 v -1.28109 h 25.942079 25.942075 v 1.28109 1.281091 H 93.359455 67.417376 Z"
     id="path1697" />
  <metadata
     id="metadata4573">
    <rdf:RDF>
      <cc:Work
         rdf:about="">
        <dc:title>Artboard 20</dc:title>
      </cc:Work>
    </rdf:RDF>
  </metadata>
</svg>
