<?xml version="1.0" encoding="UTF-8" standalone="no"?>
<svg
   id="Layer_1"
   data-name="Layer 1"
   viewBox="0 0 178 188"
   version="1.1"
   sodipodi:docname="billing_infocopia.svg"
   inkscape:version="1.1.1 (3bf5ae0d25, 2021-09-20)"
   xmlns:inkscape="http://www.inkscape.org/namespaces/inkscape"
   xmlns:sodipodi="http://sodipodi.sourceforge.net/DTD/sodipodi-0.dtd"
   xmlns="http://www.w3.org/2000/svg"
   xmlns:svg="http://www.w3.org/2000/svg"
   xmlns:rdf="http://www.w3.org/1999/02/22-rdf-syntax-ns#"
   xmlns:cc="http://creativecommons.org/ns#"
   xmlns:dc="http://purl.org/dc/elements/1.1/">
  <sodipodi:namedview
     id="namedview140"
     pagecolor="#ffffff"
     bordercolor="#666666"
     borderopacity="1.0"
     inkscape:pageshadow="2"
     inkscape:pageopacity="0.0"
     inkscape:pagecheckerboard="0"
     showgrid="false"
     inkscape:zoom="3.1223404"
     inkscape:cx="159.01533"
     inkscape:cy="94"
     inkscape:window-width="1440"
     inkscape:window-height="837"
     inkscape:window-x="-8"
     inkscape:window-y="-8"
     inkscape:window-maximized="1"
     inkscape:current-layer="Layer_1" />
  <defs
     id="defs81">
    <style
       id="style79">.cls-1{fill:#72cec5;}.cls-2{fill:#559a9d;}.cls-3{fill:#fff;}.cls-4{fill:none;}</style>
  </defs>
  <title
     id="title83">Artboard 19</title>
  <path
     class="cls-1"
     d="M164,93.54A76.24,76.24,0,1,1,87.77,17.3,76.23,76.23,0,0,1,164,93.54Z"
     id="path85" />
  <path
     class="cls-2"
     d="M119.91,120l10,.89,11.59-33,4.62-14.18L111.41,60.5,96.93,56.37l-22.5-8.58L11.73,99a76.3,76.3,0,0,0,59.05,68.89l49.8-36.71Z"
     id="path87" />
  <path
     class="cls-3"
     d="M121.79,128.35a3.78,3.78,0,0,1-3.83,3.74H47.1a3.78,3.78,0,0,1-3.83-3.74v-46a3.78,3.78,0,0,1,3.83-3.74H118a3.78,3.78,0,0,1,3.83,3.74Z"
     id="path89" />
  <path
     class="cls-4"
     d="M142.25,75.05,75.48,51.31a1.25,1.25,0,0,0-1.62.71l-2.74,7.7,69.21,24.61,2.73-7.71A1.25,1.25,0,0,0,142.25,75.05Z"
     id="path91" />
  <path
     class="cls-3"
     d="M144.87,70.89,78.1,47.16a3.78,3.78,0,0,0-4.86,2.24L70.5,57.1l-1.57,4.45-1.3,3.65-1.79,5-2.36,6.64h2.69l2.06-5.79,16.28,5.79h35.23a3.78,3.78,0,0,1,3.82,3.73V90.74l13.88,4.93-8,22.5a1.26,1.26,0,0,1-1.63.71l-4.25-1.51v2.68l3.41,1.21a3.77,3.77,0,0,0,4.85-2.24l8-22.5,1.79-5,1.29-3.64,1.58-4.45,2.74-7.71A3.78,3.78,0,0,0,144.87,70.89Zm0,4-2.74,7.7L72.89,58l2.74-7.71a1.25,1.25,0,0,1,1.62-.7L144,73.28A1.25,1.25,0,0,1,144.84,74.85Z"
     id="path93" />
  <path
     class="cls-3"
     d="M48.62,124.38h.94v-4.19h-1v-1.07h2.15v5.26h.87v1h-3Z"
     id="path95" />
  <path
     class="cls-3"
     d="M52.29,120.93c0-1.32,1.27-1.9,2.42-1.9s2.62.52,2.62,2-1.2,1.9-2.52,1.9c-.52,0-1.36.14-1.36.82v.53h3.9v1.11H52.27v-1.65c0-1.44,1.31-1.87,2.54-1.87.48,0,1.35-.08,1.35-.81s-.62-1-1.43-1c-.62,0-1.25.31-1.26.87Z"
     id="path97" />
  <path
     class="cls-3"
     d="M59.55,122.65v-1h.91c.64,0,1.31-.17,1.32-.76,0-.35-.29-.83-1.29-.83-.56,0-1.31.2-1.31.77H58c0-1.35,1.34-1.84,2.5-1.84s2.45.57,2.46,1.9a1.31,1.31,0,0,1-.87,1.24,1.5,1.5,0,0,1,1,1.32c0,1.53-1.44,2-2.65,2s-2.55-.51-2.56-1.93h1.19c0,.64.87.87,1.38.87s1.4-.25,1.4-.92c0-.38-.21-.85-1.34-.85Z"
     id="path99" />
  <path
     class="cls-3"
     d="M68.55,119.12v3.93h.74v1.14h-.74v1.2H67.39v-1.2H64L63.93,123l2.82-3.88Zm-1.16,3.93v-2.9l-2.12,2.9Z"
     id="path101" />
  <path
     class="cls-3"
     d="M76.54,120.24H73.15v1.1h1.22c1.33,0,2.53.54,2.52,2a2.19,2.19,0,0,1-2.46,2.11c-1.38,0-2.56-.49-2.57-2H73c0,.69.79.87,1.38.87s1.3-.27,1.3-1-.7-.91-1.34-.91H72v-3.32h4.54Z"
     id="path103" />
  <path
     class="cls-3"
     d="M78.6,121V122a1.86,1.86,0,0,1,1.45-.66c1.27,0,2.59.53,2.59,2.09,0,1.39-1.33,2.07-2.6,2.07s-2.61-.68-2.61-2.09v-2.34c0-1.4,1.29-2,2.58-2s2.57.54,2.57,1.85H81.4c0-.55-.7-.83-1.37-.83s-1.43.38-1.43,1.06Zm2.87,2.37c0-.69-.63-1.06-1.42-1.06s-1.46.36-1.45,1.06.67,1,1.44,1S81.47,124.1,81.47,123.41Z"
     id="path105" />
  <path
     class="cls-3"
     d="M83.3,125.39l2.56-5.15h-3v-1.12h4.6l.06.62-2.81,5.65Z"
     id="path107" />
  <path
     class="cls-3"
     d="M88.58,122.15a1.37,1.37,0,0,1-.79-1.23c0-1.27,1.17-1.91,2.53-1.91s2.57.65,2.57,1.91a1.27,1.27,0,0,1-.81,1.18,1.55,1.55,0,0,1,1,1.4c0,1.46-1.31,2-2.71,2s-2.72-.56-2.7-2A1.53,1.53,0,0,1,88.58,122.15Zm.28,1.36c0,.49.51.95,1.47.95s1.48-.45,1.47-.95-.68-.89-1.47-.89S88.87,122.9,88.86,123.51Zm1.47-1.75c.72,0,1.31-.33,1.32-.88s-.53-.89-1.33-.89-1.34.46-1.32.89S89.64,121.76,90.33,121.76Z"
     id="path109" />
  <path
     class="cls-3"
     d="M95.41,124.38h.94v-4.19h-1v-1.07h2.15v5.26h.87v1h-3Z"
     id="path111" />
  <path
     class="cls-3"
     d="M99.08,120.93c0-1.32,1.26-1.9,2.42-1.9s2.61.52,2.61,2-1.2,1.9-2.51,1.9c-.52,0-1.36.14-1.36.82v.53h3.89v1.11H99.05v-1.65c0-1.44,1.31-1.87,2.55-1.87.47,0,1.34-.08,1.34-.81s-.62-1-1.42-1c-.62,0-1.26.31-1.27.87Z"
     id="path113" />
  <path
     class="cls-3"
     d="M106.34,122.65v-1h.91c.63,0,1.3-.17,1.31-.76,0-.35-.28-.83-1.29-.83-.55,0-1.31.2-1.31.77h-1.18c0-1.35,1.35-1.84,2.5-1.84s2.46.57,2.47,1.9a1.33,1.33,0,0,1-.87,1.24,1.5,1.5,0,0,1,1,1.32c0,1.53-1.45,2-2.65,2s-2.56-.51-2.57-1.93h1.2c0,.64.86.87,1.38.87s1.39-.25,1.39-.92c0-.38-.2-.85-1.33-.85Z"
     id="path115" />
  <path
     class="cls-3"
     d="M115.34,119.12v3.93h.73v1.14h-.73v1.2h-1.17v-1.2h-3.35l-.1-1.19,2.82-3.88Zm-1.17,3.93v-2.9l-2.12,2.9Z"
     id="path117" />
  <path
     class="cls-2"
     d="M49.09,101.22v2.39a2.89,2.89,0,0,0,.07.72,2.54,2.54,0,0,0,2.69,2c2.28,0,4.56,0,6.83,0v-5.11Z"
     id="path119" />
  <path
     class="cls-2"
     d="M59.59,98.33h5.25v.91H59.59v7.09h6.79a3.26,3.26,0,0,0,.76-.07,2.58,2.58,0,0,0,2-2.78V94.56H59.59Z"
     id="path121" />
  <path
     class="cls-2"
     d="M63.22,93.65V86.27H54.69v7.38Z"
     id="path123" />
  <path
     class="cls-2"
     d="M58.68,94.56H49.09c0,1.92,0,3.84,0,5.76h9.59Z"
     id="path125" />
  <path
     class="cls-2"
     d="M53.78,86.27H52a3.47,3.47,0,0,0-.91.09,2.54,2.54,0,0,0-2,2.65c0,1.55,0,3.1,0,4.64h4.7Z"
     id="path127" />
  <path
     class="cls-2"
     d="M69.15,93.65c0-1.51,0-3,0-4.53a3.65,3.65,0,0,0-.08-.88,2.55,2.55,0,0,0-2.69-2H64.13v7.38Z"
     id="path129" />
  <path
     class="cls-3"
     d="M83.45,102.41a4.44,4.44,0,0,1-3.57,1.78c-3.48,0-5-3.07-5-6.21s1.58-6.34,5-6.34a4.37,4.37,0,0,1,3.44,1.84l-1.17,1.46a2.9,2.9,0,0,0-2.27-1.14c-2.26,0-3.24,2.17-3.23,4.18s.91,4.08,3.23,4.08a3.11,3.11,0,0,0,2.36-1.22Z"
     id="path131" />
  <path
     class="cls-3"
     d="M90.68,101.65H85.77l-.8,2.27H83.05l4.21-12h1.93l4.21,12H91.47Zm-2.46-7.24-1.74,5.12H90Z"
     id="path133" />
  <path
     class="cls-3"
     d="M102.5,103.92h-2.1l-2.73-4H96v4H94.19V91.86l4.47,0c2.21,0,3.37,1.91,3.37,4,0,1.65-.59,3.32-2.37,3.78l2.84,4.11ZM96,94v3.86h2.7c1.12,0,1.6-1,1.6-1.93S99.77,94,98.66,94Z"
     id="path135" />
  <path
     class="cls-3"
     d="M111.47,97.8c0,3-1.4,6.12-4.69,6.12H103.1v-12h3.68C110,91.88,111.43,94.82,111.47,97.8Zm-6.62,3.93h1.93c2.13,0,3-2,2.94-4s-.9-3.75-2.94-3.75h-1.93Z"
     id="path137" />
  <path
     style="fill:#ffd5d5;stroke-width:0.320273"
     d="m 81.349233,169.38786 c -1.897163,-0.19592 -10.088586,-1.47103 -10.088586,-1.57043 0,-0.0471 11.120226,-8.28016 24.711611,-18.29566 14.930762,-11.0025 24.944632,-18.59031 25.300342,-19.17083 0.49909,-0.81454 0.5889,-1.65867 0.58992,-5.54433 l 10e-4,-4.58351 1.52129,0.22532 c 0.83671,0.12392 2.07988,0.421 2.76259,0.66017 1.79099,0.62742 3.15635,0.53701 4.38404,-0.29034 1.03091,-0.69472 1.40926,-1.65996 9.00759,-22.979556 4.36232,-12.239902 7.93482,-22.729924 7.93889,-23.311158 0.01,-1.420303 -0.76652,-2.833518 -1.87049,-3.404407 C 145.10919,70.86538 129.67462,65.31422 111.30858,58.787212 87.721047,50.404574 77.523129,46.919932 76.578584,46.919932 c -1.297081,0 -2.283095,0.773085 -32.872706,25.773833 -17.344537,14.17561 -31.643612,25.777484 -31.775725,25.781942 -0.132112,0.0045 -0.240204,-2.046523 -0.240204,-4.557738 0,-19.999014 7.54112,-38.768182 21.309694,-53.037899 6.472619,-6.708208 12.631906,-11.221739 21.016238,-15.400717 16.119831,-8.034561 34.581041,-10.094868 51.834209,-5.784799 10.07876,2.517808 19.42337,6.962602 27.86371,13.253462 3.91105,2.915033 11.69743,10.70141 14.61246,14.612461 7.80863,10.476705 12.69509,22.151851 14.74499,35.229983 0.87741,5.597708 0.79776,16.981178 -0.15797,22.57922 -2.74849,16.09873 -9.49936,29.55294 -20.54959,40.95445 -11.80089,12.17604 -26.63927,19.86272 -43.399465,22.48208 -3.072977,0.48026 -14.835634,0.86866 -17.614992,0.58165 z"
     id="path762" />
  <path
     style="fill:#e9afaf;stroke-width:0.320273"
     d="m 66.376042,166.54213 c -12.003636,-3.52714 -22.350375,-9.58419 -31.432748,-18.40094 -9.108898,-8.84248 -15.37054,-18.77756 -19.404557,-30.78836 -1.82973,-5.4478 -3.698752,-14.80618 -3.469938,-17.374324 0.0973,-1.092053 1.369637,-2.175413 30.331948,-25.82681 16.626715,-13.577818 30.303141,-24.614189 30.392065,-24.525267 0.08892,0.08892 -0.0692,0.77741 -0.35139,1.529974 -0.282186,0.752564 -2.381422,6.628776 -4.664969,13.058248 -2.28355,6.429472 -4.250737,11.942163 -4.371528,12.250426 -0.190911,0.487208 -0.01537,0.560477 1.342835,0.560477 h 1.562457 l 0.997027,-2.802385 c 0.68319,-1.920275 1.142592,-2.776733 1.45947,-2.720891 0.254344,0.04482 3.896343,1.305896 8.093332,2.802385 l 7.630885,2.720891 h 18.076499 c 16.07197,0 18.17369,0.05741 18.95292,0.517715 1.64802,0.97351 1.77291,1.464325 1.94473,7.642833 l 0.16013,5.758507 6.72573,2.376592 c 3.69915,1.307129 6.75651,2.397702 6.79415,2.423497 0.0822,0.05632 -7.05111,20.160152 -7.72859,21.781602 -0.55755,1.3344 -0.94881,1.38887 -3.54938,0.49414 -1.02398,-0.3523 -1.98333,-0.64054 -2.13191,-0.64054 -0.14857,0 -0.27013,0.66397 -0.27013,1.47549 0,1.21388 -0.0898,1.44102 -0.50661,1.28109 -0.27863,-0.10692 -0.63893,-0.1944 -0.80068,-0.1944 -0.17538,0 -0.29408,-7.89842 -0.29408,-19.56866 V 80.80477 l -1.05801,-1.058018 c -0.84536,-0.845359 -1.40863,-1.099797 -2.80239,-1.265877 -0.9594,-0.114323 -17.60425,-0.164263 -36.988566,-0.110978 -33.50602,0.09211 -35.288253,0.125754 -36.137482,0.682271 -1.837877,1.204399 -1.800601,0.659137 -1.800601,26.338882 0,21.16279 0.05371,23.69519 0.523594,24.68539 1.027707,2.16573 -1.448264,2.03526 38.77396,2.04312 l 36.446905,0.007 -0.80068,0.64141 c -3.09484,2.4792 -46.977021,34.6862 -47.376913,34.77193 -0.277109,0.0594 -2.197477,-0.38964 -4.267485,-0.99789 z"
     id="path875" />
  <path
     style="fill:#e9afaf;stroke-width:0.320273"
     d="m 45.811022,131.51301 c -0.58281,-0.12493 -1.231377,-0.62273 -1.681431,-1.29056 l -0.732657,-1.08719 V 105.6323 c 0,-25.593758 -0.03689,-25.055752 1.800658,-26.259859 0.852046,-0.558328 2.575826,-0.585388 37.289906,-0.585388 39.721882,0 37.613382,-0.0991 38.602852,1.814337 0.37881,0.732531 0.45309,4.821934 0.45309,24.94455 v 24.06837 l -1.08893,1.08893 -1.08892,1.08892 -36.302898,-0.0379 c -19.966593,-0.0208 -36.729845,-0.12941 -37.25167,-0.24126 z m 12.958995,-27.7447 V 101.046 H 53.767298 48.76458 l 0.142493,1.96995 c 0.119582,1.6532 0.283133,2.09092 1.017171,2.72231 0.816676,0.70248 1.138967,0.75237 4.860226,0.75237 h 3.985547 z m 9.632814,1.78614 0.936181,-0.93618 v -5.149 -5.148997 h -4.964225 -4.964225 v 2.081771 2.081772 h 2.562181 c 1.494605,0 2.56218,0.133447 2.56218,0.320273 0,0.186825 -1.067575,0.320272 -2.56218,0.320272 h -2.562181 v 3.683139 3.68313 h 4.028044 c 4.025018,0 4.028746,-7e-4 4.964225,-0.93618 z m -9.632814,-8.191588 v -3.042589 h -4.964225 -4.964225 v 3.042589 3.042588 h 4.964225 4.964225 z m -4.804089,-7.526405 v -3.843271 h -1.13124 c -1.656241,0 -3.304407,0.792426 -3.674885,1.766857 -0.17503,0.460363 -0.318236,1.980621 -0.318236,3.378354 v 2.54133 h 2.562181 2.56218 z m 9.287905,0 v -3.843271 h -4.32368 -4.323679 v 3.843271 3.84327 h 4.323679 4.32368 z m 6.085179,0.978677 c 0,-2.54477 -0.084,-2.962249 -0.752366,-3.739271 -0.631393,-0.734039 -1.069115,-0.89759 -2.722317,-1.017172 l -1.969951,-0.142493 v 3.881765 3.881764 h 2.722317 2.722317 z"
     id="path1025" />
  <path
     style="fill:#e9afaf;stroke-width:0.320273"
     d="m 54.926746,89.836457 v -3.522999 h 4.003407 4.003407 v 3.522999 3.522998 h -4.003407 -4.003407 z"
     id="path1064" />
  <path
     style="fill:#e9afaf;stroke-width:0.320273"
     d="m 64.214651,89.836457 v -3.522999 h 1.26602 c 2.778657,0 3.538068,1.000014 3.538068,4.659022 v 2.386975 h -2.402044 -2.402044 z"
     id="path1103" />
  <path
     style="fill:#e9afaf;stroke-width:0.320273"
     d="m 49.16184,90.815134 c 0,-3.21188 0.632362,-4.150865 2.973089,-4.414699 l 1.510727,-0.170281 v 3.56465 3.564651 H 51.403748 49.16184 Z"
     id="path1142" />
  <path
     style="fill:#e9afaf;stroke-width:0.320273"
     d="m 49.16184,97.362862 v -2.722317 h 4.643952 4.643952 v 2.722317 2.722318 H 53.805792 49.16184 Z"
     id="path1181" />
  <path
     style="fill:#e9afaf;stroke-width:0.320273"
     d="m 59.730835,102.8075 v -3.362866 h 2.56218 c 2.348666,0 2.562181,-0.05338 2.562181,-0.640545 0,-0.587167 -0.213515,-0.640546 -2.562181,-0.640546 h -2.56218 v -1.761499 -1.761499 h 4.643952 4.643952 v 4.978783 c 0,4.859082 -0.0189,4.997682 -0.786123,5.764902 -0.747633,0.74764 -0.975016,0.78613 -4.643952,0.78613 h -3.857829 z"
     id="path1220" />
  <path
     style="fill:#ffaaaa;stroke-width:0.320273"
     d="m 50.51626,105.956 c -0.677843,-0.27273 -1.35442,-1.91756 -1.35442,-3.29274 v -1.29699 h 4.643952 4.643952 v 2.40204 2.40205 l -3.763202,-0.0253 c -2.069762,-0.0139 -3.946389,-0.099 -4.170282,-0.18907 z"
     id="path1259" />
  <path
     style="fill:#ffffff;stroke-width:0.320273"
     d="m 77.242737,131.47497 -31.970213,-0.16322 -0.92918,-1.12095 -0.929179,-1.12095 0.02402,-13.61159 c 0.01321,-7.48637 0.117426,-18.328407 0.231589,-24.093416 l 0.207568,-10.481834 0.888073,-0.887842 0.888073,-0.887843 h 36.58382 c 28.289872,0 36.784792,0.08946 37.470312,0.394598 0.48757,0.217028 1.02167,0.750151 1.18689,1.184717 0.16952,0.445856 0.3988,11.199431 0.52624,24.68048 l 0.22583,23.89037 -1.23752,1.26734 -1.23753,1.26733 -4.97929,-0.077 c -2.73861,-0.0423 -19.365889,-0.15044 -36.949503,-0.2402 z M 58.770017,103.76831 V 101.046 h -5.128146 -5.128146 l 0.18409,1.36116 c 0.321081,2.37406 0.455747,2.76972 1.168838,3.43406 0.625024,0.5823 1.121087,0.64941 4.800212,0.64941 h 4.103152 z m 9.708393,1.82405 0.860602,-0.89828 v -5.186903 -5.186904 h -4.964225 -4.964225 v 2.081771 2.081772 h 1.441227 c 0.792674,0 1.441226,0.144123 1.441226,0.320273 0,0.17615 -0.648552,0.320272 -1.441226,0.320272 h -1.441227 v 3.683139 3.68313 h 4.103624 c 4.078012,0 4.108993,-0.006 4.964224,-0.89827 z m -9.708393,-8.229498 v -3.042589 h -4.964225 -4.964225 v 3.042589 3.042588 h 4.964225 4.964225 z m -4.804089,-7.566065 v -3.88293 l -1.763962,0.146281 c -1.271918,0.105478 -1.986619,0.355457 -2.56218,0.896169 -0.740107,0.695294 -0.798219,0.96733 -0.798219,3.736649 v 2.986761 h 2.562181 2.56218 z m 9.287905,0.03966 v -3.843271 h -4.32368 -4.323679 v 3.843271 3.84327 h 4.323679 4.32368 z m 6.085179,0.861072 c 0,-3.986437 -0.294096,-4.335601 -4.083475,-4.848096 l -1.361159,-0.18409 v 4.007192 4.007192 h 2.722317 2.722317 z"
     id="path1372" />
  <path
     style="fill:#ffffff;stroke-width:0.320273"
     d="M 107.29131,70.067761 C 88.619421,63.43624 73.289909,57.97271 73.22573,57.926583 c -0.06418,-0.04613 0.522473,-1.856911 1.303671,-4.023964 1.137066,-3.154239 1.551366,-3.959433 2.077194,-4.037042 0.522151,-0.07707 62.980005,21.836145 66.955585,23.491232 0.75863,0.315827 1.03609,0.633174 1.02319,1.17029 -0.0315,1.309289 -2.37958,7.454244 -2.87673,7.528246 -0.25764,0.03835 -15.74544,-5.356063 -34.41733,-11.987584 z"
     id="path1522" />
  <path
     style="fill:#ffd5d5;fill-opacity:1;stroke:#ffd5d5;stroke-width:0.320273;stroke-opacity:1"
     d="m 65.923571,166.21441 c -12.58635,-3.86746 -22.111343,-9.6434 -31.661311,-19.19937 -8.180664,-8.18581 -13.334154,-16.0256 -17.329349,-26.36243 -2.280077,-5.89928 -4.602417,-15.68513 -4.602417,-19.39361 0,-1.602263 0.07408,-1.747657 1.681431,-3.299935 3.716515,-3.589179 58.136265,-48.016441 58.441866,-47.71084 0.06207,0.06207 -1.982529,5.973446 -4.543553,13.13639 -2.561022,7.162945 -4.656405,13.162452 -4.656405,13.332238 0,0.470545 3.196878,0.383404 3.361908,-0.09164 0.834736,-2.402825 1.513131,-4.053808 1.842742,-4.484618 0.361505,-0.472491 1.118037,-0.267041 7.838867,2.128779 l 7.438744,2.651741 18.419496,0.202183 c 20.34395,0.223307 19.98114,0.184285 20.6281,2.218662 0.18304,0.575551 0.43144,3.44997 0.55201,6.387597 l 0.21921,5.34114 6.53375,2.31707 c 3.59355,1.27439 6.59613,2.418026 6.67239,2.54142 0.0763,0.123392 -0.0707,0.784691 -0.3265,1.469555 -0.25584,0.684868 -1.89288,5.280648 -3.63786,10.212838 -1.74498,4.9322 -3.35654,9.36397 -3.58124,9.84839 -0.47366,1.02109 -1.17809,1.10954 -3.18819,0.40034 -2.13488,-0.75323 -2.4518,-0.65873 -2.68517,0.80068 -0.13255,0.82894 -0.37308,1.28109 -0.68148,1.28109 -0.37108,0 -0.47675,-0.44326 -0.47722,-2.00171 -3.2e-4,-1.10093 -0.0892,-9.92844 -0.19738,-19.61669 l -0.1968,-17.614992 -1.08911,-1.120954 -1.08911,-1.120954 H 82.865122 c -20.210231,0 -37.140387,0.110381 -37.62257,0.24529 -0.482183,0.134909 -1.130735,0.632888 -1.441226,1.10662 -0.52438,0.800073 -0.570917,2.565664 -0.654356,24.82564 -0.06077,16.21224 0.02045,24.37386 0.251083,25.23036 0.193874,0.71999 0.647019,1.44105 1.050643,1.67182 0.552999,0.31617 7.711939,0.45021 32.416721,0.60695 17.438842,0.11064 33.843853,0.21873 36.455583,0.2402 l 4.74859,0.039 -0.90532,0.75053 c -1.37368,1.13881 -30.872148,22.84658 -43.062702,31.68963 -1.87242,1.35825 -3.673953,2.46295 -4.003408,2.45488 -0.329458,-0.008 -2.208023,-0.50907 -4.174589,-1.11334 z"
     id="path14144" />
  <path
     style="fill:#ffaaaa;fill-opacity:1;stroke:#ffd5d5;stroke-width:0.320273;stroke-opacity:1"
     d="m 65.923571,166.21441 c -3.405949,-1.04656 -7.782012,-2.67039 -8.992492,-3.33686 -0.309707,-0.17052 -1.261848,-0.603 -2.115868,-0.96108 -2.250936,-0.94379 -8.628454,-4.79423 -11.418277,-6.89383 -9.822906,-7.39262 -18.323793,-17.32959 -23.298076,-27.23388 -3.958234,-7.88125 -7.183614,-18.58124 -7.677229,-25.46873 -0.163013,-2.27456 -0.124185,-2.4667 0.695298,-3.4406 1.088226,-1.293284 8.285816,-7.333323 26.276599,-22.050673 19.089677,-15.6163 32.110266,-26.065554 32.479723,-26.065554 0.50727,0 0.20304,0.965793 -4.285042,13.603139 -2.37558,6.689052 -4.198101,12.283049 -4.050046,12.431104 0.148056,0.148054 0.882111,0.223916 1.631235,0.168581 1.3473,-0.09952 1.369816,-0.121409 2.080119,-2.022245 1.102535,-2.950478 1.156793,-3.042589 1.79221,-3.042589 0.327248,0 3.82098,1.137199 7.763843,2.52711 l 7.168847,2.52711 16.622675,0.200322 c 21.02845,0.253416 21.26406,0.269514 21.92141,1.497788 0.40128,0.749807 0.92083,6.17577 0.93579,9.773049 l 0.0108,2.593522 5.68484,2.012475 c 4.75303,1.682606 7.23604,2.663822 7.6881,3.038112 0.0941,0.07792 -6.6221,18.941249 -7.3891,20.753239 -0.28065,0.66304 -0.73835,1.29305 -1.0171,1.40001 -0.27875,0.10697 -1.37911,-0.0503 -2.44525,-0.34941 -1.06614,-0.29914 -2.02857,-0.45376 -2.13873,-0.34359 -0.11016,0.11016 -0.34945,0.63966 -0.53173,1.17666 -0.18229,0.537 -0.47556,0.99841 -0.65171,1.02536 -0.37751,0.0577 -0.70353,-12.06629 -0.7563,-28.125341 l -0.0358,-10.879615 -1.04521,-1.031756 -1.0452,-1.031756 -37.151616,-0.09885 c -35.313834,-0.09396 -37.193533,-0.07039 -37.998916,0.476541 -0.466012,0.316466 -0.957378,0.892956 -1.091925,1.281091 -0.134546,0.388133 -0.294338,11.442836 -0.355091,24.566006 -0.09698,20.94757 -0.04986,24.02268 0.385945,25.19042 0.327061,0.87635 0.737247,1.38774 1.202388,1.49904 1.275973,0.30532 24.351448,0.58816 66.786775,0.81862 l 6.51009,0.0354 -0.90532,0.75862 c -1.79466,1.50384 -39.414231,29.13789 -43.900929,32.24812 -1.509836,1.04663 -2.974439,1.89637 -3.254674,1.8883 -0.280236,-0.008 -2.11853,-0.50907 -4.085096,-1.11334 z"
     id="path14183" />
  <path
     style="fill:#ffaaaa;fill-opacity:1;stroke:#ffd5d5;stroke-width:0.320273;stroke-opacity:1"
     d="M 139.79898,81.283571 C 124.43766,76.002268 74.031847,58.085625 73.703499,57.790069 c -0.45835,-0.412575 2.324258,-7.667411 2.940852,-7.667411 0.827352,0 57.102779,19.676796 64.996199,22.726026 3.06537,1.184158 3.07183,1.200283 1.8815,4.69999 -0.86389,2.539943 -1.70826,4.292918 -2.04987,4.255684 -0.12759,-0.01391 -0.88053,-0.248261 -1.6732,-0.520787 z"
     id="path14259" />
  <metadata
     id="metadata14298">
    <rdf:RDF>
      <cc:Work
         rdf:about="">
        <dc:title>Artboard 19</dc:title>
      </cc:Work>
    </rdf:RDF>
  </metadata>
</svg>
