<?xml version="1.0" encoding="UTF-8" standalone="no"?>
<svg
   id="Layer_1"
   data-name="Layer 1"
   viewBox="0 0 178 188"
   version="1.1"
   sodipodi:docname="shippingcopia.svg"
   inkscape:version="1.1.1 (3bf5ae0d25, 2021-09-20)"
   xmlns:inkscape="http://www.inkscape.org/namespaces/inkscape"
   xmlns:sodipodi="http://sodipodi.sourceforge.net/DTD/sodipodi-0.dtd"
   xmlns="http://www.w3.org/2000/svg"
   xmlns:svg="http://www.w3.org/2000/svg"
   xmlns:rdf="http://www.w3.org/1999/02/22-rdf-syntax-ns#"
   xmlns:cc="http://creativecommons.org/ns#"
   xmlns:dc="http://purl.org/dc/elements/1.1/">
  <sodipodi:namedview
     id="namedview39"
     pagecolor="#ffffff"
     bordercolor="#666666"
     borderopacity="1.0"
     inkscape:pageshadow="2"
     inkscape:pageopacity="0.0"
     inkscape:pagecheckerboard="0"
     showgrid="false"
     inkscape:zoom="3.2446809"
     inkscape:cx="88.914754"
     inkscape:cy="94.154098"
     inkscape:window-width="1440"
     inkscape:window-height="837"
     inkscape:window-x="-8"
     inkscape:window-y="-8"
     inkscape:window-maximized="1"
     inkscape:current-layer="Layer_1" />
  <defs
     id="defs4">
    <style
       id="style2">.cls-1{fill:#72cec5;}.cls-2{fill:#559a9d;}.cls-3{fill:#fdfcea;}.cls-4{fill:#00a4a1;}.cls-5{fill:#fff;}.cls-6{fill:#f4f4f4;}</style>
  </defs>
  <title
     id="title6">Artboard 21</title>
  <path
     class="cls-1"
     d="M165.38,93.54A76.24,76.24,0,1,1,89.14,17.3,76.24,76.24,0,0,1,165.38,93.54Z"
     id="path8"
     style="fill:#ffd5d5" />
  <path
     class="cls-2"
     d="M13.88,105.71A79,79,0,0,1,13,97,76.13,76.13,0,0,0,13.88,105.71Z"
     id="path10" />
  <path
     class="cls-2"
     d="M13,96.55c0-.41,0-.82,0-1.23C12.94,95.73,13,96.14,13,96.55Z"
     id="path12" />
  <path
     class="cls-2"
     d="M13,97c0-.15,0-.29,0-.43C13,96.69,13,96.83,13,97Z"
     id="path14" />
  <path
     class="cls-2"
     d="M12.93,95.32c0-.59,0-1.18,0-1.78C12.91,94.13,12.92,94.72,12.93,95.32Z"
     id="path16" />
  <path
     class="cls-2"
     d="M115.59,71,60.45,63.87,47.76,66.29l-8.86-.83-26,27.85v.23c0,.6,0,1.19,0,1.78,0,.41,0,.82,0,1.23,0,.14,0,.28,0,.43a79,79,0,0,0,.89,8.73A76.27,76.27,0,0,0,82.8,169.52l64.33-52Z"
     id="path18" />
  <path
     class="cls-3"
     d="M54.22,118.2a5,5,0,0,1-4.73,5.21,5.23,5.23,0,0,1,0-10.42A5,5,0,0,1,54.22,118.2Z"
     id="path20" />
  <path
     class="cls-3"
     d="M128.13,117.88a4.84,4.84,0,1,1-4.81-5.37A5.11,5.11,0,0,1,128.13,117.88Z"
     id="path22" />
  <polygon
     class="cls-4"
     points="117.38 74.67 117.38 94.39 133.9 93.27 134.06 91.03 129.57 76.44 117.38 74.67"
     id="polygon24" />
  <rect
     class="cls-5"
     x="135.95"
     y="106.05"
     width="8.7"
     height="5.16"
     id="rect26" />
  <rect
     class="cls-5"
     x="37.23"
     y="62.92"
     width="71.05"
     height="42.76"
     rx="2.55"
     ry="2.55"
     id="rect28" />
  <path
     class="cls-4"
     d="M122.71,107.34a10.74,10.74,0,1,0,10.73,10.74A10.74,10.74,0,0,0,122.71,107.34Zm2.16,13.09a3.21,3.21,0,0,1-5.37-2.35,2.88,2.88,0,0,1,.06-.59,3.2,3.2,0,0,1,6.29,0,2.88,2.88,0,0,1,.06.59A3.16,3.16,0,0,1,124.87,120.43Z"
     id="path30" />
  <path
     class="cls-4"
     d="M49.86,107.34h0a10.73,10.73,0,0,0-10.55,8.91,10.93,10.93,0,0,0-.16,1.83,10.73,10.73,0,0,0,21.46,0,10,10,0,0,0-.16-1.83A10.73,10.73,0,0,0,49.86,107.34ZM52,120.43a3.21,3.21,0,0,1-5.37-2.35,3.81,3.81,0,0,1,0-.59,3.41,3.41,0,0,1,.52-1.24,3.2,3.2,0,0,1,5.26,0,3.25,3.25,0,0,1,.52,1.24,3.8,3.8,0,0,1,.06.59A3.2,3.2,0,0,1,52,120.43Z"
     id="path32" />
  <path
     class="cls-6"
     d="M46,107.34h-9v8.91h1.65s0-.08,0-.11A11.38,11.38,0,0,1,46,107.34Z"
     id="path34" />
  <path
     class="cls-5"
     d="M144.93,110.68c0-4.9.09-9.76-.09-14.65l-4.71-2.17c-1.1-.51-2.2-1-3.29-1.56l-.41-.2c-2.22-1.19-2.15-4.2-3-6.32-.88-3.6-2.33-7.1-3.21-10.7a21.9,21.9,0,0,1-.7-7c-6.41-.09-12.77,0-19.13,0h-.06l0,0v7.88l0,0c0,10.45-.11,20.92,0,31.37H53.68a11.38,11.38,0,0,1,7.38,8.8s0,.07,0,.11h49.39c1.57-5,5.48-9.8,11.1-10.11,6.2-.9,12,3.86,13.3,9.79,4.09,0,8.18,0,12.26,0,0-1.71.05-3.46.05-5.17ZM118.78,91.44c0-4.76-.14-9.52,0-14.29,3.19,0,6.43,0,9.62.09,1.26,4.72,2.79,9.39,4.05,14.16C127.9,91.49,123.36,91.44,118.78,91.44ZM144.42,111c-2.78.1-5.6.1-8.38,0,0-1.67,0-3.3,0-5,2.78,0,5.55,0,8.33,0C144.46,107.78,144.46,109.41,144.42,111Z"
     id="path36" />
  <path
     style="fill:#ffaaaa;stroke:#008080;stroke-width:0.308197"
     d="M 80.593443,169.15269 C 72.98977,167.99347 70.719103,167.49765 65.8414,165.93147 41.700135,158.17992 22.796403,138.63469 15.903893,114.29932 14.095868,107.91574 12.961245,100.20595 13.152573,95.604061 l 0.09989,-2.402496 11.865574,-12.716257 11.865574,-12.716256 0.07371,18.046621 c 0.05145,12.59583 0.178034,18.245787 0.419106,18.706017 0.189968,0.36267 0.683405,0.81341 1.096529,1.00164 0.535821,0.24414 10.33673,0.34224 34.19128,0.34224 35.561954,0 34.826794,0.0291 35.375464,-1.40069 0.1053,-0.2744 0.19145,-8.091406 0.19145,-17.371136 V 70.221509 l 0.92459,0.135701 0.92459,0.135701 V 88.795636 107.09836 H 81.80804 c -20.69975,0 -28.315149,0.0924 -28.160995,0.34188 0.151584,0.24527 -0.169866,0.26704 -1.137548,0.077 -2.389199,-0.46909 -5.057751,-0.22164 -6.949466,0.64442 -2.018719,0.9242 -2.609546,0.82654 -0.747275,-0.12352 0.694459,-0.35429 1.262654,-0.71069 1.262654,-0.79199 0,-0.0813 -2.080328,-0.14784 -4.622951,-0.14784 h -4.622951 v 4.64248 4.64248 l 0.97129,-0.0966 c 0.871093,-0.0866 1.016105,-0.25095 1.405703,-1.59306 0.238926,-0.82307 0.503496,-1.4274 0.587933,-1.34296 0.08444,0.0844 -0.08029,0.9578 -0.366062,1.94082 -1.240813,4.26825 0.587889,9.25532 4.281782,11.67689 4.658988,3.05425 10.423361,2.40633 14.067757,-1.58122 2.002884,-2.19148 2.841623,-4.4272 2.872193,-7.65606 0.01285,-1.35607 0.07748,-2.22287 0.143644,-1.92623 0.113358,0.50821 1.556954,0.53934 25.012854,0.53934 h 24.892548 l 0.35336,-1.1794 c 0.49807,-1.66239 2.48292,-4.61584 4.04676,-6.02156 0.72882,-0.65512 2.10455,-1.55002 3.05719,-1.98865 1.46628,-0.67514 2.18135,-0.79976 4.65993,-0.81215 2.53771,-0.0127 3.15868,0.0936 4.65994,0.79752 0.95264,0.44668 2.32837,1.34816 3.05719,2.00328 1.62842,1.46377 3.60497,4.45155 3.86625,5.84428 l 0.19419,1.03513 5.70838,0.0837 c 5.43562,0.0797 5.7292,0.1151 6.14399,0.74028 0.41974,0.63263 -0.73266,1.60099 -31.634,26.58197 -22.654074,18.3138 -32.272003,25.91309 -32.758996,25.88344 -0.379169,-0.0231 -1.036121,-0.0948 -1.459891,-0.15944 z m 46.716267,-41.27598 c 6.56752,-3.10693 8.29035,-11.64748 3.42373,-16.97233 -6.1558,-6.73542 -16.95572,-3.67594 -18.70429,5.29869 -0.70827,3.63527 0.57392,7.23481 3.54408,9.94937 3.20395,2.92823 7.77269,3.59945 11.73648,1.72427 z"
     id="path133" />
  <path
     style="fill:#ffaaaa;stroke:#008080;stroke-width:0.308197"
     d="m 118.80984,84.258212 v -7.122116 l 4.59879,0.112165 c 2.52933,0.06169 4.67657,0.189944 4.77163,0.285006 0.0951,0.09506 1.05951,3.24954 2.14321,7.009951 l 1.97037,6.83711 h -6.742 -6.742 z"
     id="path209" />
  <path
     style="fill:#ffaaaa;stroke:#008080;stroke-width:0.308197"
     d="m 47.722335,128.36907 c -3.15142,-0.66752 -6.013,-2.96934 -7.38288,-5.9387 -0.750281,-1.62631 -0.886333,-2.30851 -0.87572,-4.39103 0.03153,-6.18677 4.328542,-10.32916 10.706843,-10.32158 3.063775,0.004 5.040908,0.79554 7.081805,2.83643 2.226001,2.22601 2.846562,3.86004 2.842661,7.48515 -0.0029,2.73097 -0.09596,3.25817 -0.816782,4.62906 -0.993852,1.89015 -3.50721,4.29847 -5.325233,5.10266 -1.594128,0.70516 -4.436773,0.97799 -6.230694,0.59801 z m 4.097762,-7.54368 c 0.353372,-0.24751 0.816165,-0.8693 1.028429,-1.38175 1.366689,-3.29948 -2.637678,-6.1237 -5.304319,-3.74105 -0.864127,0.77209 -1.006502,1.10264 -1.006502,2.33675 0,1.23412 0.142375,1.56466 1.006502,2.33676 0.778383,0.69549 1.304187,0.89931 2.319948,0.89931 0.722397,0 1.60257,-0.20251 1.955942,-0.45002 z"
     id="path287" />
  <path
     style="fill:#ffaaaa;stroke:#008080;stroke-width:0.308197"
     d="m 119.88852,128.25962 c -2.08345,-0.69035 -3.02656,-1.3097 -4.71856,-3.09873 -1.7351,-1.83462 -2.33327,-2.96551 -2.85479,-5.39728 -0.63311,-2.95209 0.6045,-6.72642 2.98674,-9.10866 5.17573,-5.17573 13.66241,-3.5947 16.97512,3.16238 1.20261,2.45301 1.22017,5.88225 0.0431,8.41966 -1.73274,3.73535 -5.15606,6.10874 -9.11576,6.31998 -1.21202,0.0647 -2.59858,-0.0597 -3.31587,-0.29735 z m 4.9194,-7.67765 c 2.23297,-1.95237 0.99842,-5.77869 -1.86449,-5.77869 -2.20261,0 -3.5172,1.32784 -3.5172,3.55266 0,2.52175 3.42375,3.93792 5.38169,2.22603 z"
     id="path326" />
  <metadata
     id="metadata365">
    <rdf:RDF>
      <cc:Work
         rdf:about="">
        <dc:title>Artboard 21</dc:title>
      </cc:Work>
    </rdf:RDF>
  </metadata>
</svg>
