<?xml version="1.0" encoding="UTF-8" standalone="no"?>
<svg
   id="Layer_1"
   data-name="Layer 1"
   viewBox="0 0 178 188"
   version="1.1"
   sodipodi:docname="shopping_cartcopia.svg"
   inkscape:version="1.1.1 (3bf5ae0d25, 2021-09-20)"
   xmlns:inkscape="http://www.inkscape.org/namespaces/inkscape"
   xmlns:sodipodi="http://sodipodi.sourceforge.net/DTD/sodipodi-0.dtd"
   xmlns="http://www.w3.org/2000/svg"
   xmlns:svg="http://www.w3.org/2000/svg"
   xmlns:rdf="http://www.w3.org/1999/02/22-rdf-syntax-ns#"
   xmlns:cc="http://creativecommons.org/ns#"
   xmlns:dc="http://purl.org/dc/elements/1.1/">
  <sodipodi:namedview
     id="namedview5021"
     pagecolor="#ffffff"
     bordercolor="#666666"
     borderopacity="1.0"
     inkscape:pageshadow="2"
     inkscape:pageopacity="0.0"
     inkscape:pagecheckerboard="0"
     showgrid="false"
     inkscape:zoom="3.2446809"
     inkscape:cx="88.914754"
     inkscape:cy="94.154098"
     inkscape:window-width="1440"
     inkscape:window-height="837"
     inkscape:window-x="-8"
     inkscape:window-y="-8"
     inkscape:window-maximized="1"
     inkscape:current-layer="Layer_1" />
  <defs
     id="defs4814">
    <style
       id="style4812">.cls-1{fill:#72cec5;}.cls-2{opacity:0.8;}.cls-3{fill:#559a9d;}.cls-4{fill:#e6e6e5;}.cls-5{fill:#fff;}</style>
  </defs>
  <title
     id="title4816">Artboard 17</title>
  <path
     class="cls-1"
     d="M165.63,92.54A76.24,76.24,0,1,1,89.39,16.3,76.23,76.23,0,0,1,165.63,92.54Z"
     id="path4818" />
  <g
     class="cls-2"
     id="g4984">
    <path
       class="cls-3"
       d="M23.58,131,23,130Z"
       id="path4820" />
    <path
       class="cls-3"
       d="M22.48,129.08l-.38-.69Z"
       id="path4822" />
    <path
       class="cls-3"
       d="M28.76,138.75l-.59-.78Z"
       id="path4824" />
    <path
       class="cls-3"
       d="M27.81,137.48c-.35-.48-.69-1-1-1.45C27.12,136.51,27.46,137,27.81,137.48Z"
       id="path4826" />
    <path
       class="cls-3"
       d="M26.35,135.41c-.17-.24-.33-.49-.5-.74C26,134.92,26.18,135.17,26.35,135.41Z"
       id="path4828" />
    <path
       class="cls-3"
       d="M25.43,134l-.48-.74Z"
       id="path4830" />
    <path
       class="cls-3"
       d="M24.52,132.59c-.15-.24-.3-.48-.44-.72C24.22,132.11,24.37,132.35,24.52,132.59Z"
       id="path4832" />
    <path
       class="cls-3"
       d="M21.68,127.59l-.36-.7Z"
       id="path4834" />
    <path
       class="cls-3"
       d="M17.31,117.4c-.06-.17-.12-.33-.17-.49C17.19,117.07,17.25,117.23,17.31,117.4Z"
       id="path4836" />
    <path
       class="cls-3"
       d="M17.94,119.17l-.24-.65Z"
       id="path4838" />
    <path
       class="cls-3"
       d="M18.57,120.79c-.09-.22-.18-.44-.26-.67C18.39,120.35,18.48,120.57,18.57,120.79Z"
       id="path4840" />
    <path
       class="cls-3"
       d="M20.1,124.36l-.27-.6Z"
       id="path4842" />
    <path
       class="cls-3"
       d="M20.91,126.05l-.33-.68Z"
       id="path4844" />
    <path
       class="cls-3"
       d="M19.22,122.37c-.09-.2-.17-.41-.26-.62C19.05,122,19.13,122.17,19.22,122.37Z"
       id="path4846" />
    <path
       class="cls-3"
       d="M52.36,159.19c-1.65-.92-3.27-1.91-4.85-2.95C49.09,157.28,50.71,158.27,52.36,159.19Z"
       id="path4848" />
    <path
       class="cls-3"
       d="M47.3,156.11l-1.06-.72Z"
       id="path4850" />
    <path
       class="cls-3"
       d="M46,155.23c-1.51-1-3-2.16-4.43-3.31C43,153.07,44.5,154.18,46,155.23Z"
       id="path4852" />
    <path
       class="cls-3"
       d="M53.7,159.91c-.4-.21-.8-.42-1.19-.64C52.9,159.49,53.3,159.7,53.7,159.91Z"
       id="path4854" />
    <path
       class="cls-3"
       d="M60.46,163.09l-1.28-.54Z"
       id="path4856" />
    <path
       class="cls-3"
       d="M29.77,140l-.61-.77Z"
       id="path4858" />
    <path
       class="cls-3"
       d="M41.33,151.71,40.4,151Z"
       id="path4860" />
    <path
       class="cls-3"
       d="M59.11,162.52q-2.67-1.16-5.24-2.51Q56.44,161.36,59.11,162.52Z"
       id="path4862" />
    <path
       class="cls-3"
       d="M33.59,144.47c-.82-.88-1.63-1.79-2.41-2.72C32,142.68,32.77,143.59,33.59,144.47Z"
       id="path4864" />
    <path
       class="cls-3"
       d="M34.68,145.62c-.26-.26-.51-.53-.76-.79C34.17,145.09,34.42,145.36,34.68,145.62Z"
       id="path4866" />
    <path
       class="cls-3"
       d="M30.81,141.32l-.63-.77Z"
       id="path4868" />
    <path
       class="cls-3"
       d="M35.82,146.77,35,146Z"
       id="path4870" />
    <path
       class="cls-3"
       d="M40.1,150.69l-.91-.78Z"
       id="path4872" />
    <path
       class="cls-3"
       d="M39,149.74c-1-.86-1.94-1.76-2.88-2.67C37.06,148,38,148.88,39,149.74Z"
       id="path4874" />
    <path
       class="cls-3"
       d="M14.73,108l-.09-.42Z"
       id="path4876" />
    <path
       class="cls-3"
       d="M15.21,110.15l-.12-.5Z"
       id="path4878" />
    <path
       class="cls-3"
       d="M14.1,104.5c0-.21-.07-.42-.1-.63C14,104.08,14.06,104.29,14.1,104.5Z"
       id="path4880" />
    <path
       class="cls-3"
       d="M14.39,106.26c0-.2-.07-.41-.1-.61C14.32,105.85,14.36,106.06,14.39,106.26Z"
       id="path4882" />
    <path
       class="cls-3"
       d="M15.66,112c-.05-.21-.11-.42-.16-.63C15.55,111.55,15.61,111.76,15.66,112Z"
       id="path4884" />
    <path
       class="cls-3"
       d="M16.13,113.67,16,113Z"
       id="path4886" />
    <path
       class="cls-3"
       d="M13.4,98.6c0-.2,0-.39,0-.59C13.37,98.21,13.38,98.4,13.4,98.6Z"
       id="path4888" />
    <path
       class="cls-3"
       d="M13.2,94.91c0-.19,0-.38,0-.57C13.19,94.53,13.19,94.72,13.2,94.91Z"
       id="path4890" />
    <path
       class="cls-3"
       d="M16.63,115.33c-.06-.18-.11-.36-.17-.54C16.52,115,16.57,115.15,16.63,115.33Z"
       id="path4892" />
    <path
       class="cls-3"
       d="M13.83,102.65c0-.18-.05-.35-.07-.53C13.78,102.3,13.8,102.47,13.83,102.65Z"
       id="path4894" />
    <path
       class="cls-3"
       d="M13.56,100.37l0-.26Z"
       id="path4896" />
    <path
       class="cls-3"
       d="M13.28,96.79l0-.63Z"
       id="path4898" />
    <path
       class="cls-3"
       d="M39.19,149.91l-.19-.17Z"
       id="path4900" />
    <path
       class="cls-3"
       d="M13.36,98c0-.4-.06-.81-.08-1.22C13.3,97.2,13.33,97.61,13.36,98Z"
       id="path4902" />
    <path
       class="cls-3"
       d="M36.12,147.07l-.3-.3Z"
       id="path4904" />
    <path
       class="cls-3"
       d="M35,146l-.36-.37Z"
       id="path4906" />
    <path
       class="cls-3"
       d="M33.92,144.83l-.33-.36Z"
       id="path4908" />
    <path
       class="cls-3"
       d="M13.76,102.12c-.08-.58-.14-1.16-.2-1.75C13.62,101,13.68,101.54,13.76,102.12Z"
       id="path4910" />
    <path
       class="cls-3"
       d="M13.53,100.11c0-.51-.09-1-.13-1.51C13.44,99.1,13.48,99.6,13.53,100.11Z"
       id="path4912" />
    <path
       class="cls-3"
       d="M52.51,159.27l-.15-.08Z"
       id="path4914" />
    <path
       class="cls-3"
       d="M40.4,151l-.3-.26Z"
       id="path4916" />
    <path
       class="cls-3"
       d="M60.63,163.16l-.17-.07Z"
       id="path4918" />
    <path
       class="cls-3"
       d="M59.18,162.55l-.07,0Z"
       id="path4920" />
    <path
       class="cls-3"
       d="M53.87,160a1,1,0,0,1-.17-.1A1,1,0,0,0,53.87,160Z"
       id="path4922" />
    <path
       class="cls-3"
       d="M13.25,96.16c0-.42,0-.83-.05-1.25C13.21,95.33,13.23,95.74,13.25,96.16Z"
       id="path4924" />
    <path
       class="cls-3"
       d="M41.58,151.92l-.25-.21Z"
       id="path4926" />
    <path
       class="cls-3"
       d="M13.18,94.34c0-.6,0-1.2,0-1.8C13.16,93.14,13.17,93.74,13.18,94.34Z"
       id="path4928" />
    <path
       class="cls-3"
       d="M46.24,155.39l-.23-.16Z"
       id="path4930" />
    <path
       class="cls-3"
       d="M47.51,156.24l-.21-.13Z"
       id="path4932" />
    <path
       class="cls-3"
       d="M17.14,116.91c-.18-.53-.35-1-.51-1.58C16.79,115.86,17,116.38,17.14,116.91Z"
       id="path4934" />
    <path
       class="cls-3"
       d="M20.58,125.37l-.48-1Z"
       id="path4936" />
    <path
       class="cls-3"
       d="M21.32,126.89c-.14-.28-.28-.56-.41-.84C21,126.33,21.18,126.61,21.32,126.89Z"
       id="path4938" />
    <path
       class="cls-3"
       d="M16,113c-.1-.35-.19-.7-.29-1.06C15.76,112.33,15.85,112.68,16,113Z"
       id="path4940" />
    <path
       class="cls-3"
       d="M22.1,128.39l-.42-.8Z"
       id="path4942" />
    <path
       class="cls-3"
       d="M15.5,111.34c-.1-.4-.2-.79-.29-1.19C15.3,110.55,15.4,110.94,15.5,111.34Z"
       id="path4944" />
    <path
       class="cls-3"
       d="M23,130l-.49-.89Z"
       id="path4946" />
    <path
       class="cls-3"
       d="M18.31,120.12c-.13-.31-.25-.63-.37-1C18.06,119.49,18.18,119.81,18.31,120.12Z"
       id="path4948" />
    <path
       class="cls-3"
       d="M19.83,123.76c-.21-.46-.41-.92-.61-1.39C19.42,122.84,19.62,123.3,19.83,123.76Z"
       id="path4950" />
    <path
       class="cls-3"
       d="M19,121.75l-.39-1Z"
       id="path4952" />
    <path
       class="cls-3"
       d="M31.18,141.75c-.12-.14-.25-.28-.37-.43C30.93,141.47,31.06,141.61,31.18,141.75Z"
       id="path4954" />
    <path
       class="cls-3"
       d="M16.46,114.79l-.33-1.12Z"
       id="path4956" />
    <path
       class="cls-3"
       d="M28.17,138l-.36-.49Z"
       id="path4958" />
    <path
       class="cls-3"
       d="M14.29,105.65c-.07-.38-.13-.76-.19-1.15C14.16,104.89,14.22,105.27,14.29,105.65Z"
       id="path4960" />
    <path
       class="cls-3"
       d="M17.7,118.52l-.39-1.12Z"
       id="path4962" />
    <path
       class="cls-3"
       d="M29.16,139.27l-.4-.52Z"
       id="path4964" />
    <path
       class="cls-3"
       d="M30.18,140.55l-.41-.51Z"
       id="path4966" />
    <path
       class="cls-3"
       d="M14,103.87c-.06-.4-.12-.81-.17-1.22C13.88,103.06,13.94,103.47,14,103.87Z"
       id="path4968" />
    <path
       class="cls-3"
       d="M25,133.28l-.43-.69Z"
       id="path4970" />
    <path
       class="cls-3"
       d="M24.08,131.87c-.17-.28-.34-.56-.5-.84C23.74,131.31,23.91,131.59,24.08,131.87Z"
       id="path4972" />
    <path
       class="cls-3"
       d="M15.09,109.65c-.13-.55-.25-1.11-.36-1.67C14.84,108.54,15,109.1,15.09,109.65Z"
       id="path4974" />
    <path
       class="cls-3"
       d="M14.64,107.56c-.08-.43-.17-.87-.25-1.3C14.47,106.69,14.56,107.13,14.64,107.56Z"
       id="path4976" />
    <path
       class="cls-3"
       d="M26.78,136l-.43-.62Z"
       id="path4978" />
    <path
       class="cls-3"
       d="M25.85,134.67l-.42-.65Z"
       id="path4980" />
    <path
       class="cls-3"
       d="M120.32,135.72l-6.22-12.57-2.89-1,22.07-15.59-6.72-3.4,12-35.12L104,67.55,87,69.38l-13-.83-10.91-.73-4.17-3.91L28.49,60.53,17.74,66.46a76.16,76.16,0,0,0-4.58,26.08c0,.6,0,1.2,0,1.8,0,.19,0,.38,0,.57,0,.42,0,.83.05,1.25l0,.63c0,.41.05.82.08,1.22,0,.2,0,.39,0,.59,0,.5.08,1,.13,1.51l0,.26c.06.59.12,1.17.2,1.75,0,.18,0,.35.07.53.05.41.11.82.17,1.22,0,.21.06.42.1.63.06.39.12.77.19,1.15,0,.2.07.41.1.61.08.43.17.87.25,1.3l.09.42c.11.56.23,1.12.36,1.67l.12.5c.09.4.19.79.29,1.19.05.21.11.42.16.63.1.36.19.71.29,1.06l.18.64.33,1.12c.06.18.11.36.17.54.16.53.33,1,.51,1.58.05.16.11.32.17.49l.39,1.12.24.65c.12.32.24.64.37,1s.17.45.26.67l.39,1c.09.21.17.42.26.62.2.47.4.93.61,1.39l.27.6.48,1,.33.68c.13.28.27.56.41.84l.36.7.42.8.38.69L23,130l.61,1.06c.16.28.33.56.5.84s.29.48.44.72l.43.69.48.74.42.65c.17.25.33.5.5.74l.43.62c.34.48.68,1,1,1.45l.36.49.59.78.4.52.61.77.41.51.63.77c.12.15.25.29.37.43.78.93,1.59,1.84,2.41,2.72l.33.36c.25.26.5.53.76.79L35,146l.78.78.3.3c.94.91,1.9,1.81,2.88,2.67l.19.17.91.78.3.26.93.76.25.21c1.44,1.15,2.92,2.26,4.43,3.31l.23.16,1.06.72.21.13c1.58,1,3.2,2,4.85,2.95l.15.08c.39.22.79.43,1.19.64a1,1,0,0,0,.17.1q2.57,1.35,5.24,2.51l.07,0,1.28.54.17.07C62.46,163.9,120.32,135.72,120.32,135.72Z"
       id="path4982" />
  </g>
  <path
     class="cls-4"
     d="M140.66,66.17H62.77a1.7,1.7,0,0,0,0,3.38h77.89a1.71,1.71,0,0,0,0-3.38Z"
     id="path4986" />
  <path
     class="cls-4"
     d="M135.75,79.74H66.58a1.71,1.71,0,0,0,0,3.38h69.17a1.71,1.71,0,0,0,0-3.38Z"
     id="path4988" />
  <path
     class="cls-4"
     d="M130.56,93.31h-61a1.71,1.71,0,0,0,0,3.38h61a1.71,1.71,0,0,0,0-3.38Z"
     id="path4990" />
  <polygon
     class="cls-4"
     points="77.05 68.43 74.13 68.86 78.1 104.15 81.19 104.91 77.05 68.43"
     id="polygon4992" />
  <polygon
     class="cls-4"
     points="88.79 68.68 85.85 68.92 88.01 105.23 91.09 104.58 88.79 68.68"
     id="polygon4994" />
  <polygon
     class="cls-4"
     points="97.65 68.17 97.64 105.34 100.44 105.23 100.59 68.17 97.65 68.17"
     id="polygon4996" />
  <polygon
     class="cls-4"
     points="111.24 68.05 105.67 105.77 108.85 104.47 114.14 68.61 111.24 68.05"
     id="polygon4998" />
  <polygon
     class="cls-4"
     points="123.89 68.03 114.74 105.98 118.01 105.23 126.73 68.94 123.89 68.03"
     id="polygon5000" />
  <polygon
     class="cls-4"
     points="136.28 67.42 124.18 104.15 127.08 105.55 139.03 68.61 136.28 67.42"
     id="polygon5002" />
  <path
     class="cls-5"
     d="M133.28,101.64H73.91L62,63.09c-.17,2.06-2,2.49-3.81,2.74L70.37,105a2.19,2.19,0,0,0,2,1.64h60.88a2.51,2.51,0,0,0,0-5Z"
     id="path5004" />
  <path
     class="cls-5"
     d="M61.4,61.13a4,4,0,0,0-2.7-1H30.86a3.48,3.48,0,1,0,0,6.91H58.7a3.42,3.42,0,0,0,.46,0,3.62,3.62,0,0,0,3.35-3.08,1.86,1.86,0,0,0,0-.33A3.29,3.29,0,0,0,61.4,61.13Z"
     id="path5006" />
  <polygon
     class="cls-5"
     points="116.59 130.13 69.02 130.13 74.7 103.78 77.68 104.63 72.95 126.59 116.59 126.59 116.59 130.13"
     id="polygon5008" />
  <circle
     class="cls-5"
     cx="71.48"
     cy="128.68"
     r="8.55"
     transform="translate(-4.89 2.84) rotate(-2.2)"
     id="circle5010" />
  <path
     class="cls-3"
     d="M77.89,128.68a6.41,6.41,0,1,1-6.41-6.41A6.4,6.4,0,0,1,77.89,128.68Z"
     id="path5012" />
  <path
     class="cls-5"
     d="M124.25,128.68a8.55,8.55,0,1,1-8.54-8.55A8.54,8.54,0,0,1,124.25,128.68Z"
     id="path5014" />
  <circle
     class="cls-5"
     cx="115.48"
     cy="128.68"
     r="8.55"
     transform="translate(-4.85 4.53) rotate(-2.2)"
     id="circle5016" />
  <path
     class="cls-3"
     d="M121.89,128.68a6.41,6.41,0,1,1-6.41-6.41A6.4,6.4,0,0,1,121.89,128.68Z"
     id="path5018" />
  <path
     style="fill:#ffd5d5;stroke:#008080;stroke-width:0.308197"
     d="m 83.753282,168.42031 c -6.356616,-0.49531 -14.583071,-2.24784 -19.956561,-4.25147 -2.463552,-0.91859 -2.464815,-0.91964 -1.540983,-1.27748 6.787515,-2.62909 26.493471,-11.73436 48.971332,-22.62753 3.7116,-1.79871 6.87365,-3.27039 7.02678,-3.27039 0.64027,0 2.33848,-1.07594 3.56385,-2.25795 3.34185,-3.2236 3.34185,-8.90311 0,-12.12672 -1.76443,-1.702 -3.07164,-2.30931 -5.36735,-2.49359 l -1.92504,-0.15452 8.95434,-6.30583 c 4.92487,-3.46821 9.5283,-6.6064 10.22982,-6.97375 2.1182,-1.10918 2.58589,-3.08818 1.06475,-4.50534 -0.5686,-0.52973 -1.08442,-0.62492 -3.38643,-0.62492 -1.49361,0 -2.71566,-0.0942 -2.71566,-0.20928 0,-0.11511 0.29411,-1.1206 0.65358,-2.234428 0.53752,-1.66551 0.82485,-2.107242 1.61803,-2.48744 0.73015,-0.349985 0.98722,-0.696244 1.05815,-1.425277 0.0541,-0.555753 -0.1009,-1.157575 -0.36646,-1.423139 -0.40808,-0.408077 -0.27916,-1.021838 1.13909,-5.423026 1.55078,-4.812452 1.62494,-4.963145 2.44679,-4.971944 1.88963,-0.02022 2.73798,-2.220797 1.29403,-3.35661 l -0.7863,-0.618505 1.50097,-4.720257 1.50098,-4.720258 1.3329,-0.180705 c 2.01015,-0.272517 2.88777,-2.001054 1.60529,-3.161692 -0.5182,-0.468964 -3.70667,-0.510062 -39.57031,-0.510062 -35.284693,0 -39.024543,-0.04652 -39.193765,-0.487503 -0.102891,-0.268125 -0.18759,-0.99624 -0.188225,-1.618033 -6.16e-4,-0.62179 -0.281048,-1.589614 -0.62314,-2.150716 -1.160222,-1.902986 -1.203329,-1.907683 -17.511777,-1.907683 -16.924536,0 -14.754564,-0.347171 -21.567637,3.450589 -2.42835,1.353619 -4.494384,2.381923 -4.591186,2.285119 -0.258501,-0.2585 1.547817,-4.454386 3.65374,-8.487257 8.038602,-15.39402 21.898507,-28.140568 37.757942,-34.72487 5.916249,-2.456227 11.15772,-3.95579 17.860687,-5.109868 5.307089,-0.913744 17.199482,-1.004239 22.481041,-0.17107 16.33024,2.576108 30.54865,9.587239 42.01682,20.718597 11.83506,11.487476 19.31859,25.656752 22.24105,42.111113 0.85709,4.825618 1.172,15.257418 0.61568,20.395045 -3.03552,28.03322 -20.97984,51.91672 -47.01517,62.57617 -10.53225,4.31214 -23.100222,6.30373 -34.281648,5.43248 z"
     id="path5078" />
  <path
     style="fill:#ffaaaa;stroke:#008080;stroke-width:0.308197"
     d="m 55.783607,160.7475 c -18.1919,-8.97949 -32.159171,-24.9366 -38.552118,-44.04442 -2.553629,-7.63251 -3.50261,-13.21782 -3.726494,-21.932588 -0.247392,-9.629847 0.535336,-15.698053 3.160427,-24.50164 l 1.102793,-3.69836 4.515207,-2.465574 c 2.483364,-1.356066 4.602598,-2.505175 4.709409,-2.553576 0.106811,-0.0484 0.126216,0.619541 0.04312,1.484317 -0.169041,1.75924 0.235538,2.79714 1.383554,3.549349 0.64028,0.419528 2.59795,0.477807 15.343216,0.456764 l 14.609292,-0.02412 1.236251,3.937076 c 0.679941,2.165394 3.389126,10.871505 6.020411,19.346914 3.583881,11.543718 4.94864,15.545148 5.439755,15.949178 0.360575,0.29664 1.125639,0.53934 1.700136,0.53934 0.574501,0 1.044547,0.0711 1.044547,0.15793 0,0.15167 -2.289507,10.97513 -2.623226,12.40109 -0.09424,0.40268 -0.395259,0.69344 -0.717907,0.69344 -2.288164,0 -5.445904,2.2156 -6.747835,4.73457 -1.168651,2.26109 -1.168651,5.52879 0,7.78989 2.033707,3.93479 6.556395,5.69079 10.870764,4.22073 2.016661,-0.68714 4.223941,-2.90636 4.964445,-4.9913 l 0.562373,-1.5834 h 13.424393 13.4244 l 0.35375,1.32263 c 0.43212,1.61568 2.48432,4.02274 4.15736,4.87626 0.67443,0.34407 2.06461,0.71967 3.08928,0.83466 l 1.86304,0.20908 -7.98091,3.82692 c -28.071596,13.46059 -46.032536,21.60229 -47.643792,21.59695 -0.39099,-0.001 -2.652529,-0.96075 -5.025643,-2.13211 z"
     id="path5117" />
  <path
     style="fill:#ffaaaa;stroke:#008080;stroke-width:0.308197"
     d="m 79.419564,125.18926 c -0.798256,-1.80459 -2.230596,-3.3666 -3.746387,-4.08556 -0.798302,-0.37864 -1.222265,-0.76874 -1.153186,-1.06108 0.06008,-0.25426 0.723073,-3.3398 1.473313,-6.85674 l 1.364073,-6.39445 27.572603,-6.4e-4 c 23.43479,-5.3e-4 27.50487,0.0631 27.12131,0.424 -1.32913,1.2506 -18.42305,12.94667 -19.25906,13.1775 -2.07765,0.57367 -4.68361,3.05146 -5.41456,5.14826 l -0.33961,0.9742 H 93.521977 80.005893 Z"
     id="path5193" />
  <path
     style="fill:#ffaaaa;stroke:#008080;stroke-width:0.308197"
     d="m 69.036066,134.40217 c -2.094558,-0.92829 -3.831958,-3.52447 -3.845691,-5.74658 -0.01002,-1.62063 1.340515,-4.08015 2.793234,-5.08688 1.440097,-0.99799 3.904648,-1.33672 5.61612,-0.77188 1.998986,0.65972 4.216506,3.74963 4.216506,5.8753 0,2.02129 -1.989873,4.94233 -3.916172,5.74875 -1.252989,0.52455 -3.659084,0.5153 -4.863997,-0.0187 z"
     id="path5232" />
  <path
     style="fill:#ffaaaa;stroke:#008080;stroke-width:0.308197"
     d="m 112.61733,134.11896 c -4.14241,-2.18693 -4.48172,-7.80833 -0.63487,-10.51787 1.02782,-0.72395 1.6857,-0.93164 3.21241,-1.01413 2.26485,-0.12239 3.73271,0.57043 5.28075,2.49247 0.88397,1.09753 0.95389,1.36088 0.95389,3.5927 0,2.23183 -0.0699,2.49517 -0.95389,3.59271 -2.07046,2.57067 -5.13254,3.29315 -7.85829,1.85412 z"
     id="path5271" />
  <path
     style="fill:#ffaaaa;stroke:#008080;stroke-width:0.308197"
     d="m 67.182125,79.283607 c -0.07673,-0.211886 -0.706492,-2.237621 -1.399465,-4.501633 -0.692972,-2.264013 -1.334119,-4.309669 -1.424771,-4.545902 -0.136677,-0.356176 0.675903,-0.429515 4.758981,-0.429515 h 4.9238 l 0.34251,2.696722 c 0.18838,1.483196 0.434473,3.702213 0.546873,4.931147 l 0.204362,2.234426 h -3.906388 c -2.845239,0 -3.944287,-0.10465 -4.045902,-0.385245 z"
     id="path5310" />
  <path
     style="fill:#ffaaaa;stroke:#008080;stroke-width:0.308197"
     d="m 78.433387,79.437705 c -0.0015,-0.127131 -0.2083,-1.964754 -0.459617,-4.083607 -0.251316,-2.118852 -0.458144,-4.233852 -0.459617,-4.7 l -0.0027,-0.847541 h 4.129623 4.129622 l 0.192371,3.929509 c 0.105804,2.161229 0.249738,4.380245 0.319854,4.931147 l 0.127482,1.001639 h -3.987181 c -2.192949,0 -3.988386,-0.104016 -3.989859,-0.231147 z"
     id="path5349" />
  <path
     style="fill:#ffaaaa;stroke:#008080;stroke-width:0.308197"
     d="m 89.403847,75.585246 c -0.113522,-2.245984 -0.281028,-4.465 -0.372236,-4.931148 l -0.165833,-0.847541 h 4.339242 4.339242 v 4.931148 4.931147 H 93.577256 89.61025 Z"
     id="path5388" />
  <path
     style="fill:#ffaaaa;stroke:#008080;stroke-width:0.308197"
     d="m 100.62623,74.746167 v -4.93961 h 5.10413 5.10413 l -0.19161,1.309836 c -0.10538,0.72041 -0.42593,2.904755 -0.71232,4.854099 l -0.52072,3.544262 -4.39181,0.08551 -4.3918,0.08551 z"
     id="path5427" />
  <path
     style="fill:#ffaaaa;stroke:#008080;stroke-width:0.308197"
     d="m 112.75992,78.821311 c 0.0897,-0.466147 0.38206,-2.373114 0.64981,-4.237704 0.26774,-1.864591 0.55478,-3.702214 0.63785,-4.083607 0.14817,-0.680248 0.23597,-0.693443 4.61403,-0.693443 3.79166,0 4.46298,0.07061 4.46298,0.469402 0,0.258171 -0.50261,2.477187 -1.11692,4.931148 l -1.11692,4.461745 h -4.14691 -4.14691 z"
     id="path5466" />
  <path
     style="fill:#ffaaaa;stroke:#008080;stroke-width:0.308197"
     d="m 124.46798,78.984905 c 0.1031,-0.386616 0.63411,-2.609905 1.18002,-4.940643 l 0.99257,-4.237705 h 4.25184 c 2.33852,0 4.2501,0.104017 4.24797,0.231148 -0.002,0.127131 -0.67337,2.311475 -1.49163,4.854098 l -1.48774,4.622951 -3.94025,0.08654 -3.94024,0.08654 z"
     id="path5505" />
  <path
     style="fill:#ffaaaa;stroke:#008080;stroke-width:0.308197"
     d="m 121.95298,89.454098 c 0.49184,-2.076475 1.03135,-4.295491 1.19891,-4.931147 l 0.30466,-1.155738 h 3.71945 c 2.84677,0 3.68573,0.09039 3.5757,0.385246 -0.0791,0.211885 -0.81844,2.430902 -1.64306,4.931148 l -1.49929,4.545901 h -3.27531 -3.27531 z"
     id="path5544" />
  <path
     style="fill:#ffaaaa;stroke:#008080;stroke-width:0.308197"
     d="m 110.8038,92.700258 c 0.004,-0.302191 0.27809,-2.352389 0.60931,-4.555996 0.33123,-2.203606 0.60542,-4.179918 0.60932,-4.391803 0.005,-0.288077 1.01763,-0.385246 4.01364,-0.385246 2.2036,0 3.99998,0.03467 3.99195,0.07705 -0.008,0.04238 -0.5358,2.226722 -1.17282,4.854099 l -1.15821,4.777049 -3.45013,0.08714 c -3.13929,0.07929 -3.4495,0.03764 -3.44306,-0.462295 z"
     id="path5583" />
  <path
     style="fill:#ffaaaa;stroke:#008080;stroke-width:0.308197"
     d="m 100.62623,88.298361 v -4.931148 h 4.10952 4.10952 l -0.71444,4.7 c -0.39294,2.585 -0.71665,4.804017 -0.71936,4.931148 -0.003,0.127131 -1.53049,0.231147 -3.39508,0.231147 h -3.39016 z"
     id="path5622" />
  <path
     style="fill:#ffaaaa;stroke:#008080;stroke-width:0.308197"
     d="M 90.326039,90.070492 C 90.218136,88.333033 90.05087,86.114016 89.954337,85.139344 l -0.175514,-1.772131 h 3.882719 3.88272 v 4.931148 4.931147 h -3.511017 -3.511017 z"
     id="path5661" />
  <path
     style="fill:#ffaaaa;stroke:#008080;stroke-width:0.308197"
     d="m 79.974371,92.998361 c -0.0015,-0.127131 -0.208301,-1.964754 -0.459617,-4.083607 -0.251316,-2.118852 -0.458144,-4.233852 -0.459617,-4.7 l -0.0027,-0.847541 h 3.677592 c 3.239725,0 3.695494,0.06422 3.827951,0.539344 0.0827,0.29664 0.243648,2.515656 0.357668,4.931148 l 0.20731,4.391803 h -3.572966 c -1.96513,0 -3.57417,-0.104016 -3.575643,-0.231147 z"
     id="path5700" />
  <path
     style="fill:#ffaaaa;stroke:#008080;stroke-width:0.308197"
     d="m 70.023312,88.51245 c -0.797248,-2.594382 -1.449542,-4.813399 -1.449542,-4.931148 0,-0.117749 1.594919,-0.214089 3.544263,-0.214089 2.628517,0 3.544954,0.09954 3.54694,0.385246 0.0015,0.211885 0.208301,2.118852 0.459617,4.237705 0.686428,5.787285 0.905498,5.239344 -2.09472,5.239344 h -2.557017 z"
     id="path5739" />
  <path
     style="fill:#ffaaaa;stroke:#008080;stroke-width:0.308197"
     d="m 73.94694,101.14683 c -0.08526,-0.2222 -0.414919,-1.262362 -0.732566,-2.311478 l -0.577539,-1.907483 h 2.24133 2.241331 l 0.19599,1.429901 c 0.107794,0.786445 0.195989,1.82661 0.195989,2.31147 0,0.86372 -0.03453,0.88158 -1.704754,0.88158 -1.121684,0 -1.757778,-0.13818 -1.859781,-0.40399 z"
     id="path5778" />
  <path
     style="fill:#ffaaaa;stroke:#008080;stroke-width:0.308197"
     d="m 80.789432,100.12092 c -0.107794,-0.786446 -0.195989,-1.82661 -0.195989,-2.311476 v -0.881575 h 3.390164 3.390163 v 0.881575 c 0,0.484866 0.0882,1.52503 0.19599,2.311476 l 0.19599,1.4299 h -3.390164 -3.390164 z"
     id="path5817" />
  <path
     style="fill:#ffaaaa;stroke:#008080;stroke-width:0.308197"
     d="m 90.959924,100.12092 c -0.107794,-0.786446 -0.19599,-1.82661 -0.19599,-2.311476 v -0.881575 h 3.390164 3.390164 v 2.311475 2.311476 h -3.194174 -3.194174 z"
     id="path5856" />
  <path
     style="fill:#ffaaaa;stroke:#008080;stroke-width:0.308197"
     d="m 100.62623,99.239344 v -2.311475 h 3.10906 3.10905 l -0.20155,1.309836 c -0.11085,0.72041 -0.27716,1.760574 -0.36958,2.311475 l -0.16804,1.00164 h -2.73947 -2.73947 z"
     id="path5895" />
  <path
     style="fill:#ffaaaa;stroke:#008080;stroke-width:0.308197"
     d="m 109.70083,99.778689 c 0.35708,-3.043408 0.10467,-2.85082 3.73633,-2.85082 2.02936,0 3.2153,0.118733 3.2153,0.321907 0,0.177048 -0.22489,1.217212 -0.49976,2.311475 l -0.49977,1.989569 h -3.08001 -3.08001 z"
     id="path5934" />
  <path
     style="fill:#ffaaaa;stroke:#008080;stroke-width:0.308197"
     d="m 119.22942,100.85738 c 0.1008,-0.3814 0.34708,-1.42156 0.54728,-2.311478 l 0.36401,-1.618033 h 3.03292 c 1.66811,0 3.03293,0.08249 3.03293,0.183304 0,0.100817 -0.29089,1.140981 -0.64641,2.311475 l -0.64642,2.128172 h -2.93379 c -2.8913,0 -2.93114,-0.0101 -2.75052,-0.69344 z"
     id="path5973" />
  <metadata
     id="metadata6012">
    <rdf:RDF>
      <cc:Work
         rdf:about="">
        <dc:title>Artboard 17</dc:title>
      </cc:Work>
    </rdf:RDF>
  </metadata>
</svg>
